<svg xmlns="http://www.w3.org/2000/svg" viewBox="0 0 32 32"><defs><style>.cls-1{fill:#68c7d3;}.cls-2{fill:#30acc2;}.cls-3{fill:#a1d8df;}.cls-4{fill:#d1e6e9;}</style></defs><title>Lotus Flower</title><g id="Lotus_Flower" data-name="Lotus Flower"><path class="cls-1" d="M12,24c-1.13,1.13-1.75,1.92-3.09,2.36A4.9,4.9,0,0,1,5,26l.43,1.73A3,3,0,0,0,8.34,30,31.92,31.92,0,0,0,16,29V24Z"/><path class="cls-1" d="M20,24c1.13,1.13,1.75,1.92,3.09,2.36A4.9,4.9,0,0,0,27,26l-.43,1.73A3,3,0,0,1,23.66,30,31.92,31.92,0,0,1,16,29V24Z"/><path class="cls-2" d="M20,25c-.74,3-1.47,4.32-4,6-2.52-1.68-3.27-3.07-4-6Z"/><path class="cls-1" d="M17.8,19.19a4,4,0,0,1-7.25,3.38C8.43,18,9.1,10,9.1,10S15.68,14.65,17.8,19.19Z"/><path class="cls-1" d="M14.2,19.19a4,4,0,0,0,7.25,3.38C23.57,18,22.9,10,22.9,10S16.32,14.65,14.2,19.19Z"/><path class="cls-3" d="M16.39,18.54A4,4,0,0,1,17.86,24c-1.11,1.91-3.31,2-5.47,1.46C6,24,4,16,4,16S12.06,16,16.39,18.54Z"/><path class="cls-3" d="M15.61,18.54A4,4,0,0,0,14.14,24c1.11,1.91,3.31,2,5.47,1.46C26,24,28,16,28,16S19.94,16,15.61,18.54Z"/><path class="cls-4" d="M21,21a5,5,0,0,1-10,0c0-5,5-13,5-13S21,16,21,21Z"/><rect class="cls-2" x="15" y="1" width="2" height="4"/><rect class="cls-2" x="11" y="4.59" width="2" height="2.83" transform="translate(-0.73 10.24) rotate(-45)"/><rect class="cls-2" x="18.59" y="5" width="2.83" height="2" transform="translate(1.62 15.9) rotate(-45)"/></g></svg>